<?xml version="1.0" encoding="UTF-8"?>
<svg width="239.32mm" height="67.652mm" version="1.1" viewBox="0 0 848 239.71" xmlns="http://www.w3.org/2000/svg"><g transform="translate(121.86 -512.66)"><g fill="#a8f1fd" stroke="#6d6d6d" stroke-linecap="round" stroke-linejoin="round"><g stroke-width="1.8246"><path d="m162.7 556.44c0.3114 17.231-11.235 31.204-25.094 31.204-13.859 0-25.094-13.97-25.094-31.204 0-17.233 11.235-31.204 25.094-31.204 10.623 0 19.514 8.2698 23.366 19.801 0.89692 2.6852 1.6514 7.1464 1.7283 11.403z"/><path d="m181.75 557.02c0.38803 21.487-14.011 38.913-31.294 38.913s-31.294-17.422-31.294-38.913c0-21.492 14.011-38.913 31.294-38.913 13.247 0 24.335 10.312 29.139 24.693 1.1185 3.3488 2.0594 8.9121 2.1553 14.221z"/><path d="m222.14 577.45c0.63741 35.273-23 63.878-51.371 63.878-28.371 0-51.371-28.599-51.371-63.878 0-35.279 22.999-63.878 51.371-63.878 21.746 0 39.947 16.928 47.833 40.535 1.8361 5.497 3.3806 14.629 3.5381 23.343z"/><path d="m249.92 594.78c0.80874 44.753-29.18 81.044-65.176 81.044s-65.176-36.284-65.176-81.044c0-44.759 29.18-81.044 65.176-81.044 27.59 0 50.682 21.477 60.687 51.428 2.3296 6.9731 4.2891 18.559 4.4889 29.615z"/><path d="m267.75 609.51c0.91134 50.428-32.882 91.324-73.443 91.324s-73.443-40.887-73.443-91.324c0-50.437 32.882-91.324 73.443-91.324 31.09 0 57.111 24.202 68.385 57.951 2.6251 7.858 4.8332 20.914 5.0583 33.373z"/></g><g stroke-width="2.0045"><path d="m272.18 630.34c1.0212 56.51-36.847 102.34-82.301 102.34s-82.301-45.818-82.301-102.34c0-56.519 36.847-102.34 82.301-102.34 34.839 0 63.998 27.121 76.632 64.94 2.9416 8.8056 5.416 23.436 5.6683 37.397z"/><path d="m256.95 643.49c1.0212 56.51-36.847 102.34-82.301 102.34-45.453 0-82.301-45.818-82.301-102.34s36.847-102.34 82.301-102.34c34.839 0 63.998 27.121 76.632 64.94 2.9417 8.8062 5.416 23.437 5.6684 37.398z"/><path d="m211.3 643.49c0 56.52-36.847 102.34-82.301 102.34s-82.301-45.818-82.301-102.34 36.847-102.34 82.301-102.34c34.839 0 64.622 26.918 76.632 64.94"/><path d="m163.96 643.49c0 56.52-36.847 102.34-82.301 102.34-45.453 0-82.301-45.818-82.301-102.34s36.847-102.34 82.301-102.34c34.839 0 64.622 26.918 76.632 64.94"/></g><path d="m97.743 711.96c-15.277 24.097-38.648 39.506-64.841 39.506-46.024 0-83.333-47.572-83.333-106.25 0-58.682 37.31-106.25 83.333-106.25 28.084 0 52.923 17.713 68.02 44.855" stroke-width="1.8136"/></g><g><path d="m46.411 647.58a44.295 89.343 0 0 1-44.295 89.343 44.295 89.343 0 0 1-44.295-89.343 44.295 89.343 0 0 1 44.295-89.343 44.295 89.343 0 0 1 44.295 89.343z" fill="#6d6d6d" stroke="#6d6d6d" stroke-linecap="round" stroke-linejoin="round" stroke-width="2.4572"/><g fill-rule="evenodd"><path d="m-107.56 662.66c-11.983 1.6762-12.538 24.458-9.7991 37.275 1.847 8.6445 11.426 12.052 15.987 7.1574 2.591-2.7807 1.9608-8.8385 2.6501-16.956" fill="#c5c5c5"/><path d="m-111.4 663.43c-11.465 18.011-7.0208 31.201-1.9214 44.192-1.5551-14.95-1.626-29.752 1.9214-44.192z" fill="#fdfdfd"/><path d="m-23.212 696.48c-7.8423 2.4365-13.609 6.5334-16.332 13.066 8.3841 11.147 15.063 32.612 30.934 15.371 18.249-28.383 3.0319-34.955-6.2478-30.965-5.2594 2.2613-3.7801 5.7987-5.9888 7.2365" fill="#c5c5c5"/><path d="m-6.0154 693.31-7.6856 7.6859-12.297 25.554 6.8209 5.1874 8.8384-3.6505 10.76-19.887-2.69-12.201z" fill="#fdfdfd"/><path d="m-89.659 587.72-16.983 21.738 81.508 0.17638-26.515-23.633z" fill="#f9d119" stroke="#6d6d6d" stroke-width="2.152"/><path d="m-73.604 529.69 12.802 10.451c-3.8153-16.877-25.282-29.604-31.153-25.9-3.9203 2.4727 7.2008 12.254 18.351 15.449z" fill="#e9b2a4" stroke="#6d6d6d" stroke-width="2.0133"/><path d="m-95.235 566.54 33.616 6.1119 8.8084-4.1346c-2.9169-11.145-4.9389-22.291-10.786-33.436l-7.7298-6.1125-13.437 4.2801c-5.0827-11.409-36.827-16.507-35.231-7.1287-6.8488 4.6725 29.094 9.7097 31.401 14.9z" fill="#f5c9be"/><path d="m-68.683 546.88c-2.0044-3.2697-5.3979-4.061-7.0554-3.5051-7.9585 2.67-4.1155 18.581-5.0202 23.335 9.0461-1.7255 17.933-4.3396 27.583-2.1604l-5.2116-18.305c-4.4695-4.6339-7.353-2.7065-10.296 0.63557z" fill="#fdfdfd" stroke="#6d6d6d" stroke-linecap="round" stroke-linejoin="round" stroke-width="1.51"/><path d="m-96.493 563.84c-6.9982 3.2357-7.1624 6.4719-10.246 9.7076l-2.3369 4.314 5.9322-1.9773-0.89881 6.6514c2.8511 2.0795 5.2193 4.401 11.325 4.8535l7.1905 0.7189c11.575 5.3954 23.32 4.6504 35.233-2.1573l5.3929-6.4713 5.1664 1.2334-2.2903-6.6264c3.1828-5.9629-4.9262-5.0731-11.817-5.8364-14.01 4.9691-26.718-5.8327-42.652-4.4101z" fill="#fdfdfd"/><path d="m-79.273 575.25c-10.176 2.7351-2.9263 8.1743 4.0692 9.1985 9.2752 1.3581 23.553 0.0851 26.344-3.8627l-30.013-4.8018z" fill="#6d6d6d"/><path d="m-112.26 616.78-3.6015 3.9929c-6.8009 7.5406-7.7666 19.956 5.0374 23.905" fill="#f5c9be" stroke="#6d6d6d" stroke-linecap="round" stroke-linejoin="round" stroke-width="2.152"/></g></g><g fill="none" stroke="#6d6d6d" stroke-linecap="round" stroke-linejoin="round"><path d="m-93.469 563.12c0.77942-6.2712 2.4503-16.481 5.2147-22.752-18.933-9.4511-32.524-5.9365-32.298-13.884 0.36472-12.833 27.555-2.2438 36.631 6.0845" stroke-width="2.0133"/><path d="m-86.478 536.59c19.379-20.808 29.751 7.8714 34.066 30.888" stroke-width="2.0133"/><path d="m-80.504 541.92c1.3072-4.8742 8.9633-4.4801 10.805-1.2712" stroke-width="1.51"/><path d="m-65.251 540.53c0.21896-0.23112 2.4038-1.7778 3.6862 0.12772" stroke-width="1.51"/></g><path d="m-80.959 581.47c1.9588 2.015 4.4005 3.4777 8.1117 3.4899-1.7149-3.4376-3.9045-5.7841-8.1117-3.4899z" fill="#f5c9be" fill-rule="evenodd"/><g stroke="#6d6d6d"><path d="m-86.342 587.28c-3.363 2.1968-24.632-0.7852-15.898-11.037-1.0456-0.85393-3.7862 0.41358-6.1014 1.144-0.15448-3.0915 3.1594-7.1793 8.2623-7.754-0.36614-0.0851-2.2161 1.1015-5.2116 1.0169 6.7639-15.381 28.255-2.0655 42.964-0.8898 7.8446 0.62706 17.438-7.6117 23.007 3.8135l-3.0507-0.76269c2.247 1.5296 3.3361 3.8433 2.1609 8.1354l-3.432-2.161c-6.447 3.8056-31.047-2.1896-36.566-3.7119-4.0352-1.1136-5.4128 5.5542 0.44642 8.5465 7.461 3.8098 27.989 1.7839 30.302-3.0398" fill="none" stroke-linecap="round" stroke-linejoin="round" stroke-width="2.0133"/><path d="m-71.288 577.87c3.7553 2.5587 5.1549 5.1181 5.8066 7.6768l7.777 0.90927c1.7456-2.1172 2.2236-3.943 1.7392-6.2834-3.3874-0.82168-11.931-1.6014-15.323-2.3027z" fill="#fdfdfd" fill-rule="evenodd" stroke-width="1.6151"/><path d="m-90.419 584.12c9.7004 9.3402 35.46 10.735 45.226-3.9765" fill="none" stroke-linecap="round" stroke-linejoin="round" stroke-width="2.0133"/></g><path d="m-87.695 649.6 41.811-2.3057 22.865 48.803c-6.8437 3.294-12.232 7.5576-16.908 12.297-5.3477-8.0253-9.518-16.232-10.183-24.978-5.4747-7.2371-8.0961-14.475-11.144-21.712l-6.5328-0.76816c-5.6972 29.858-16.298 45.762-40.734 22.288l1.5371-19.406 13.45 6.725z" fill="#89c3f5" fill-rule="evenodd"/><g fill="none" stroke="#6d6d6d" stroke-linecap="round" stroke-linejoin="round" stroke-width="2.152"><path d="m-88.539 650.36c-0.20679 8.8865-3.976 18.96-7.1092 28.821"/><path d="m-47.421 646.52 26.323 52.166"/><path d="m-73.552 660.93c5.1724 0.29802 7.4734 1.4554 19.598-0.19463"/><path d="m-61.358 662.61c3.8403 8.8348 6.6691 20.828 17.564 27.602"/><path d="m-50.645 684.77c1.1206 8.1506 3.5025 16.505 10.465 24.041"/><path d="m-23.212 696.48c-7.8423 2.4365-13.609 6.5334-16.332 13.066 8.3841 11.147 18.75 32.229 30.934 15.371 19.351-26.772 2.6627-35.089-6.2478-30.965-5.1954 2.4042-5.9539 8.5836-8.1626 10.021"/></g><path d="m-21.098 697.82c-6.1703 2.6712-9.5355 5.9951-12.489 9.4151l4.2271 2.8823c1.0081-1.9949 3.5946-3.6267 6.3755-6.329z" fill="#fdfdfd" fill-rule="evenodd" stroke="#6d6d6d" stroke-linecap="round" stroke-linejoin="round" stroke-width="1.076"/><g fill="none" stroke="#6d6d6d"><path d="m-5.9194 693.6c-7.9856 2.3775-13.79 22.59-20.367 32.952" stroke-linecap="round" stroke-linejoin="round" stroke-width="1.614"/><g stroke-width="1.614"><path d="m-1.1159 697.44c-9.0947-5.3163-15.014 19.531-22.288 31.511"/><path d="m-10.339 702.15 10.472 3.6511"/><path d="m-14.181 708.58 12.297 4.131"/><path d="m-16.583 714.54 11.817 4.4192"/><path d="m-19.369 720.98 9.7991 3.8433"/></g><path d="m-67.212 661.7c-4.3086 16.271-8.7791 26.844-14.105 30.763-6.1735 4.5421-15.075-0.71769-26.933-8.667-1.9067-7.1093-0.48961-14.219 1.9214-21.327 4.1268 2.8622 7.8053 6.2548 12.409 7.6853" stroke-linecap="round" stroke-linejoin="round" stroke-width="2.152"/><path d="m-107.56 662.66c-11.983 1.6762-12.538 24.458-9.7991 37.275 1.847 8.6445 11.426 12.052 15.987 7.1574 2.591-2.7807 1.9608-8.8385 2.6501-16.956" stroke-linecap="round" stroke-linejoin="round" stroke-width="2.152"/><path d="m-109.99 663.28c-6.6613 12.297-4.7659 31.659-2.7462 43.956" stroke-width="1.614"/></g><g><path d="m-98.915 690.52c-2.911 0.26153-6.7781-1.3873-10.76-3.2667l-0.57658 4.9958c3.5866 2.116 7.1732 2.5417 10.76 2.8823z" fill="#fdfdfd" fill-rule="evenodd" stroke="#6d6d6d" stroke-linecap="round" stroke-linejoin="round" stroke-width="1.076"/><path transform="matrix(.99605 -.088842 .083181 .99653 0 0)" d="m-164.43 581.72h100.96v59.832h-100.96z" fill="#c3c3c3" stroke="#6d6d6d" stroke-linecap="round" stroke-linejoin="round" stroke-width="2.265"/><path d="m-111.11 597.56 92.524-8.2053 4.5398 52.334-92.66 7.7303z" fill="#fdfdfd"/><g fill-rule="evenodd"><path d="m-34.015 602.76-9.3756 6.3649 17.608 13.873 9.3375-6.6696z" fill="#f7d6ce"/><path d="m-94.484 595.58 47.071-4.0221 14.624 11.44-11.306 7.4366-5.4538-2.4566-1.124 0.75418 2.8219 35.277-40.181 3.7727-0.37709-32.824-4.7161 2.6408-10.941-10.753z" fill="#fce57d"/><path d="m-104.35 608.46 11.072 9.7374-5.7359 6.003-10.578-1.0674-0.31688-9.0033z" fill="#f7d6ce"/><path d="m-72.976 594.14 13.642-1.1598s-11.826 19.393-5.572 25.322c5.9608 5.6509 18.544-13.221 23.633-6.7651 7.7846 9.8755-18.253 33.054-18.253 33.054l-14.603 1.3533s14.831-13.378 10.183-18.75c-3.6856-4.2611-11.427 9.5896-15.755 5.9921-10.123-8.4127 6.7248-39.046 6.7248-39.046z" fill="#c5c5c5"/></g></g><g fill="#9d9d9d" fill-rule="evenodd"><path d="m-47.507 591.89 12.995 10.538-9.756 7.1434-4.9857-3.2618c-1.2591-0.82413-2.1989-3e-3 -2.1186 1.4986l1.8962 35.463-36.23 3.7228-0.64695-33.784c-0.02433-1.2426-1.4672-1.914-2.4336-1.1319l-4.5064 4.2556-10.157-9.4655 9.5546-11.249-3.8219 0.27978-8.2791 10.153c-0.55529 0.58388-0.54739 1.5029 0.0182 2.0776l11.501 11.263c0.5407 0.54739 1.4099 0.59604 2.0076 0.10948l3.1816-3.1755 0.48413 30.161c0.01216 0.85879 0.74834 1.5284 1.6049 1.4646l39.462-3.0289c0.82893-0.0669 1.4453-0.79371 1.3714-1.6221l-1.4047-33.151c0.98767 0.978 2.7151 2.1014 3.9866 2.684l12.3-8.8476c0.73174-0.49265 0.88062-1.5071 0.32113-2.1883l-12.801-10.432z" color="#000000" color-rendering="auto" image-rendering="auto" shape-rendering="auto" solid-color="#000000" style="block-progression:tb;isolation:auto;mix-blend-mode:normal;text-decoration-color:#000000;text-decoration-line:none;text-decoration-style:solid;text-indent:0;text-transform:none;white-space:normal"/><path d="m-105.44 607.83-4.5403 5.2531 0.5407 3.1986 6.3749-6.6428zm11.083 9.6516-6.101 6.5401-6.4775-0.68971-0.71786 2.9005 8.0634 0.5109 6.8221-7.4408z" color="#000000" color-rendering="auto" image-rendering="auto" shape-rendering="auto" solid-color="#000000" style="block-progression:tb;isolation:auto;mix-blend-mode:normal;text-decoration-color:#000000;text-decoration-line:none;text-decoration-style:solid;text-indent:0;text-transform:none;white-space:normal"/><path d="m-32.226 602.14-3.207 1.3204 18.449 12.707 1.0718-0.61064 0.18854-1.6975z"/></g><path transform="matrix(.99639 -.084898 .087046 .9962 0 0)" d="m-163.13 585.32h93.907v53.201h-93.907z" fill="none" stroke="#6d6d6d" stroke-linecap="round" stroke-linejoin="round" stroke-width="1.1395"/><g fill="#f5c9be" fill-rule="evenodd"><path d="m-113.81 622.77 13.315 3.2606 3.2607 4.0756-0.4075 4.8912 0.4075 3.2606-3.2607 1.3587-13.586 2.31c0.0906-6.3856-3.7259-12.771 0.27187-19.157z"/><g stroke="#6d6d6d" stroke-linecap="round" stroke-linejoin="round" stroke-width="2.152"><path d="m-115.86 642.29c6.821 4.3 20.353-1.3016 13.422-3.5568"/><path d="m-106.43 638.79c1.8465 0.25545 5.703 0.93238 7.8604 0.15205 1.8974-0.68788 2.5331-2.968-0.163-4.9612"/><path d="m-107.38 633.28c4.3185 0.54131 12.572 1.939 11.032-2.4079-0.34546-0.97618-1.1287-1.3934-3.1585-2.1445"/><path d="m-107.16 628.87c1.7067 0.29802 7.5778 1.2109 8.0302-1.1398 0.67937-3.5306-7.6189-3.243-14.138-4.3043"/></g></g><path d="m-69.954 555.21a2.9871 6.4191 0 0 1-2.9871 6.4191 2.9871 6.4191 0 0 1-2.9871-6.4191 2.9871 6.4191 0 0 1 2.9871-6.4191 2.9871 6.4191 0 0 1 2.9871 6.4191z" fill="#6d6d6d"/><path d="m-72.356 556.11-5.1671 2.9832v-5.9664z" fill="#fdfdfd"/><g transform="matrix(.50334 0 0 .50334 -14.152 357.34)"><path d="m-87.631 392.35a5.9346 12.753 0 0 1-5.9346 12.753 5.9346 12.753 0 0 1-5.9346-12.753 5.9346 12.753 0 0 1 5.9346-12.753 5.9346 12.753 0 0 1 5.9346 12.753z" fill="#6d6d6d"/><path d="m-92.404 394.14-10.266 5.9269v-11.854z" fill="#fdfdfd"/></g><g><path d="m-55.472 568.68a5.6519 2.86 0 0 1-5.6519 2.86 5.6519 2.86 0 0 1-5.6519-2.86 5.6519 2.86 0 0 1 5.6519-2.86 5.6519 2.86 0 0 1 5.6519 2.86z" fill="#6d6d6d"/><path d="m-58.708 567.87a2.1016 1.0635 0 0 1-2.1016 1.0635 2.1016 1.0635 0 0 1-2.1016-1.0635 2.1016 1.0635 0 0 1 2.1016-1.0635 2.1016 1.0635 0 0 1 2.1016 1.0635z" fill="#fdfdfd"/><path d="m-42.498 609.21-3.207 1.3204 17.723 12.552h1.8864l0.18854-1.6975z" fill="#9d9d9d" fill-rule="evenodd"/></g><g transform="matrix(-.43737 0 0 .51104 -84.675 348.89)" fill="#f5c9be" fill-rule="evenodd"><path d="m-163.82 512.54c-20.056 10.486-24.95 39.848 2.7521 48.393" stroke="#6d6d6d" stroke-linecap="round" stroke-linejoin="round" stroke-width="4"/><path d="m-163.9 521.78 24.749 6.0609 6.0609 7.5762-0.75761 9.0914 0.75761 6.0609-6.0609 2.5254-25.254 4.2932z"/><g stroke="#6d6d6d" stroke-linecap="round" stroke-linejoin="round" stroke-width="4"><path d="m-167.71 558.07c12.679 7.992 37.831-2.4193 24.948-6.6121"/><path d="m-150.19 551.57c3.4321 0.47352 10.6 1.7334 14.611 0.27925 3.5269-1.2789 4.7084-5.5163-0.3029-9.2212"/><path d="m-151.95 541.32c8.027 1.0074 23.368 3.6041 20.506-4.4758-0.64245-1.8141-2.0979-2.5902-5.871-3.9862"/><path d="m-151.54 533.12c3.1724 0.55605 13.854 2.2019 14.926-2.1189 1.6434-6.6221-6.5468-4.373-25.101-8.0006"/></g></g><path d="m-61.599 579.25c0.38925 1.4451 0.83312 2.8902 0.5334 4.3353" fill="none" stroke="#6d6d6d" stroke-linecap="round" stroke-linejoin="round" stroke-width=".747"/><path d="m340.18 712.93c0-1.6221 0.10583-1.6945 2.444-1.6945 1.814 0 2.7433-0.32843 3.6049-1.2718 1.2214-1.3374 3.5562-6.2688 3.5562-7.5108 0-0.54739-5.8887-15.913-10.006-26.107-0.20192-0.49873 0.43061-0.70492 2.1764-0.70309l2.4618 6e-3 3.896 11.341 3.8961 11.341 1.5543-4.4223c0.85484-2.4328 2.6818-7.4737 4.0598-11.203l2.5056-6.7803 4.6145-0.34059-6.4268 16.118c-3.5347 8.864-6.8132 16.823-7.2854 17.686-2.132 3.8974-4.2027 5.2421-8.0698 5.2421-2.9366 0-2.9819 0-2.9819-1.6945zm-21.857-10.703c-3.0667-1.3928-4.3516-3.7818-4.0002-7.439 0.50846-5.2951 3.267-7.2602 11.873-8.4602 4.6491-0.64896 4.9439-0.7706 4.9439-2.0448 0-1.7687-1.4084-4.4576-2.5679-4.9028-2.2076-0.84723-6.7804-0.32235-9.1878 1.054l-2.4331 1.391 0.17334-2.3696c0.17091-2.3386 0.21409-2.383 3.2806-3.3409 7.5734-2.3672 13.058-0.32235 14.633 5.4574 0.33878 1.2426 0.61764 6.5188 0.61965 11.724l3e-3 9.4637h-2.26c-2.2344 0-2.26 0-2.2628-2.119l-3e-3 -2.1184-1.2684 1.5424c-2.5937 3.1548-7.3807 4.0513-11.542 2.1622zm9.644-4.0373c2.0667-1.6257 3.1725-3.9807 3.1725-6.7578v-2.3434l-3.4841 0.40142c-7.0206 0.815-8.9461 1.9822-8.9461 5.4222 0 3.007 1.6623 4.4545 5.1153 4.4545 1.8241 0 3.1068-0.36492 4.1423-1.1799zm47.038 4.342c-4.9776-1.8532-7.449-6.3162-7.3826-13.332 0.0608-6.8806 3.2699-11.861 8.6736-13.48 8.1265-2.4353 14.719 3.0289 14.731 12.209l3e-3 2.4018h-9.6051c-7.3091 0-9.6043 0.17029-9.602 0.70612 6e-3 2.161 1.3874 5.0554 3.1377 6.5924 1.7808 1.5637 2.3591 1.7413 5.6589 1.7413 2.5604 0 4.3474-0.34059 5.8904-1.13 2.876-1.467 2.9278-1.4536 2.7197 0.70613-0.14354 1.4968-0.58206 2.0345-2.367 2.906-2.8674 1.4001-8.9823 1.7504-11.858 0.67998zm11.505-16.74c0-1.866-1.477-4.8505-2.8911-5.8406-1.9485-1.3648-6.2013-1.2049-8.1214 0.30411-1.5973 1.2566-3.8214 5.4289-3.3234 6.2341 0.15205 0.24937 3.4406 0.45008 7.3067 0.45008 6.6895 0 7.0292-0.0608 7.0292-1.1483zm44.962 16.9c-2.989-0.70066-3.7168-1.4202-3.7168-3.6736 0-1.0498 0.0991-1.9086 0.22139-1.9086 0.12164 0 1.3291 0.50481 2.6838 1.1179 3.0753 1.3952 8.3197 1.4992 11.019 0.21895 5.139-2.4389 4.7246-10.147-0.66708-12.4-0.99472-0.41358-3.4946-0.92812-5.5552-1.1392-3.6091-0.37101-3.7464-0.43791-3.7464-1.925 0-1.5041 0.0961-1.5479 3.937-1.8228 4.616-0.32843 6.5458-1.3885 7.7385-4.2429 1.0433-2.4967 0.60845-5.247-1.1524-7.2948-1.0278-1.1945-1.9204-1.5534-4.3703-1.7565-2.8327-0.2372-4.2342 0.11556-8.0269 2.0126-0.25362 0.12772-0.38135-0.72863-0.28221-1.9006 0.1557-1.8605 0.43061-2.2218 2.1565-2.8422 2.9122-1.0455 9.3333-0.978 11.654 0.12164 5.8372 2.7704 6.7773 10.883 1.7588 15.179-1.2737 1.0905-2.7151 1.9907-3.203 2.0004-0.48778 0 0.49934 0.70917 2.1945 1.554 3.7132 1.8502 5.1407 3.6742 5.5217 7.054 0.95866 8.5052-7.749 14.089-18.164 11.647zm76.717 0.1338c-3.162-0.81804-5.6107-2.774-7.3087-5.8388l-1.6514-2.9808-0.36614-29.098h2.3023 2.3022v13.441c0 12.824 0.0547 13.555 1.2713 15.928 1.9326 3.7818 3.7101 4.8091 8.3288 4.8115 4.1881 0 5.8469-0.78702 8.1628-3.8864 1.0929-1.4627 1.1758-2.4462 1.3414-15.927l0.17638-14.368h2.2248 2.2248v12.893c0 10.147-0.1922 13.546-0.90198 15.961-1.826 6.2135-5.4442 8.9504-12.308 9.3111-2.2123 0.11556-4.8213 6e-3 -5.7976-0.24936zm181.53-0.29194c-4.9775-1.8532-7.4489-6.3162-7.3825-13.332 0.0608-6.8807 3.2698-11.862 8.6735-13.48 8.1266-2.4353 14.719 3.0289 14.731 12.209l6e-3 2.4012h-9.6051c-7.3091 0-9.6045 0.1703-9.602 0.70674 6e-3 2.1604 1.3874 5.0554 3.1377 6.5924 1.7809 1.5637 2.359 1.7413 5.6588 1.7413 2.5604 0 4.3475-0.3406 5.8905-1.13 2.876-1.467 2.9279-1.4536 2.7197 0.70613-0.14354 1.4968-0.58205 2.0344-2.367 2.906-2.8674 1.4001-8.9823 1.7504-11.858 0.67998zm11.505-16.74c0-1.8666-1.477-4.8505-2.8911-5.8406-1.9486-1.3648-6.2013-1.2049-8.1213 0.3041-1.5973 1.256-3.8214 5.4283-3.3234 6.2341 0.15205 0.24936 3.4405 0.45007 7.3066 0.45007 6.6897 0 7.0293-0.0608 7.0293-1.1483zm-409.63-1.9596v-18.927h2.26 2.26v16.95 16.95h7.6276 7.6277v1.9773 1.9779h-9.8877-9.8876v-18.928zm105.66 5.368v-13.561h1.9466c1.9214 0 1.9488 0 2.1188 2.684l0.17273 2.6834 1.2315-2.0837c1.4689-2.4851 4.0965-3.9801 6.5733-3.7405 1.6237 0.15813 1.8172 0.37709 1.9718 2.2273l0.17151 2.0527-2.4314-0.2737c-1.9371-0.21895-2.7613 0-4.0537 1.0084-2.7502 2.1701-3.345 4.457-3.6268 13.944l-0.25545 8.6159h-1.9089-1.9088v-13.56zm80.796-3.3902v-16.951h-5.3676-5.3676v-1.9773-1.9773h13.278 13.278v1.9773 1.9773h-5.65-5.6502v16.951 16.95h-2.26-2.2601v-16.95zm58.196-2.0071v-18.957l5.8187 0.3406 20.172 31.515v-15.899-15.899h2.26 2.26v18.928 18.927h-2.706-2.7062l-9.8654-15.28c-5.4259-8.4036-10.12-15.655-10.43-16.114-0.38134-0.56564-0.51089 4.4089-0.39898 15.28l0.16604 16.114h-2.2849-2.2848v-18.957zm53.111 0v-19.061l8.6164 0.27977c9.9319 0.32235 12.602 1.0394 16.417 4.3967 3.7399 3.2922 5.1147 6.9026 5.1591 13.55 0.0304 4.9776-0.10279 5.6606-1.824 9.1578-2.1927 4.4551-5.21 7.2602-9.6778 8.999-2.5156 0.97861-4.7221 1.2778-10.921 1.481l-7.7689 0.25545v-19.061zm15.503 14.168c6.8105-2.0497 10.099-6.7043 10.155-14.375 0.073-9.9679-4.2806-14.121-15.347-14.639l-5.7914-0.27369v15.047 15.046h4.1478c2.2812 0 5.3569-0.36492 6.8349-0.8083zm21.788-8.7965v-13.56h1.9466c1.9214 0 1.9488 0.0608 2.1188 2.684l0.17273 2.6834 1.2316-2.0837c1.4688-2.4851 4.0965-3.9807 6.5733-3.7405 1.6237 0.15813 1.8171 0.37709 1.9717 2.2273l0.17212 2.0527-2.4315-0.27369c-1.937-0.21896-2.7613 0-4.0537 1.0084-2.7502 2.1695-3.3449 4.457-3.6268 13.944l-0.25606 8.6159h-1.9088-1.9088v-13.56zm18.645 0v-13.56h1.9775 1.9775v13.56 13.561h-1.9775-1.9775v-13.561zm18.571 12.007c-1.7169-4.3645-9.531-25.18-9.531-25.39 0-0.1338 1.0574-0.16421 2.3498-0.0669l2.3496 0.17638 3.5977 10.453c1.9788 5.7494 3.727 10.815 3.8851 11.257 0.15753 0.44399 1.396-2.355 2.751-6.2153 1.355-3.8603 3.173-8.9893 4.0398-11.398l1.576-4.3785h2.2162c1.8727 0 2.1596 0.15205 1.8518 0.98895-0.20071 0.5413-2.5795 6.6453-5.2868 13.559l-4.9225 12.571-2.1328 6.1e-4c-1.8021 0-2.2276-0.2372-2.744-1.5534zm48.1-12.007v-13.56h1.9466c1.9215 0 1.9489 0.0608 2.1188 2.684l0.17273 2.6834 1.2316-2.0837c1.4688-2.4851 4.0965-3.9807 6.5733-3.7405 1.6236 0.15813 1.8171 0.37709 1.9717 2.2273l0.17213 2.0527-2.4315-0.27369c-1.937-0.21896-2.7613 0-4.0537 1.0084-2.7502 2.1695-3.3449 4.457-3.6268 13.944l-0.25545 8.6159h-1.9089-1.9088v-13.56zm-66.247-20.95c-1.5436-0.89893-1.2977-3.7934 0.38804-4.561 1.7551-0.7998 2.9817-0.32235 3.803 1.4804 0.53948 1.1842 0.47562 1.6184-0.37465 2.5581-1.1256 1.2438-2.3009 1.405-3.8159 0.52306zm-93.085-12.002c-6.6342-1.5582-10.887-4.9758-13.774-11.068l-1.7639-3.7228-0.19037-14.549-0.19037-14.549h-4.7534-4.7534v-8.7576-8.7576h4.8026 4.8026v-5.9166-5.9173l2.9663-0.84176c8.9796-2.5496 21.358-5.9696 21.607-5.9696 0.15752 0 0.28768 4.1948 0.28768 9.3226v9.3226h6.215 6.2152v8.7576 8.7576h-6.2575-6.2576l0.18368 11.347 0.18368 11.348 1.8451 1.6476c1.5084 1.3466 2.3527 1.6476 4.6246 1.6476 1.5286 0 3.438-0.24937 4.2429-0.55347l1.4635-0.55347-0.3114 17.78-2.825 0.72924c-4.202 1.085-14.665 1.3709-18.363 0.49873zm43.921 0.16421c-5.19-1.3022-9.5264-4.7836-11.794-9.4692-2.5819-5.3334-2.8301-7.7358-3.1495-30.488l-0.30288-21.612h12.784 12.784l6e-3 18.222c6e-3 19.26 0.25788 21.641 2.5603 23.944 1.8258 1.8258 6.1961 1.8854 8.4466 0.11556 2.9827-2.3465 3.1151-3.35 3.1151-23.617v-18.663h12.713 12.713v30.228 30.228h-12.713-12.713v-4.5409-4.5409l-3.3773 3.6103c-4.4113 4.716-8.669 6.731-14.703 6.9585-2.3307 0.0851-5.1951-0.0791-6.3651-0.37709zm-290.84-1.2541c-6e-3 -0.0791-4.5384-19.083-10.071-42.234l-10.06-42.093 13.828-0.15205c7.6055-0.0851 13.909-0.0669 14.008 0 0.2293 0.23112 7.3359 50.759 7.8849 56.059l0.41054 3.9552 0.9999-5.368c0.54982-2.9516 3.7018-15.537 7.004-27.968 3.3023-12.43 6.2568-23.553 6.5657-24.719l0.56198-2.119h13.999 13.999l5.2974 24.437c2.9136 13.44 5.7058 26.98 6.205 30.087l0.90745 5.6502 0.38378-3.9552c0.21044-2.1756 2.1032-15.714 4.2049-30.087l3.8215-26.132h12.588 12.588l-0.3856 1.554c-0.21227 0.85454-5.0071 19.86-10.656 42.234l-10.271 40.681-27.274 0.30411-0.29863-1.2809c-0.16421-0.70491-2.8305-11.631-5.9252-24.28-3.0945-12.649-5.888-25.084-6.2076-27.633-0.31991-2.5496-0.67675-4.7306-0.79322-4.8474-0.11617-0.11556-0.38439 1.3143-0.59544 3.1797-0.28646 2.5265-11.586 47.058-13.665 53.854-0.27734 0.90805-1.4788 0.98834-14.672 0.98834-7.9032 0-14.375-0.0608-14.381-0.13989zm113.01-30.086v-30.229h12.43 12.43v30.229 30.228h-12.43-12.43v-30.228zm37.291 0v-30.229h12.43 12.43v4.5251 4.5251l3.5313-3.5684c5.2831-5.3395 11.306-7.6531 18.194-6.9901 9.7388 0.93786 14.802 5.6892 16.97 15.926 0.65048 3.0727 0.83781 8.6013 0.84541 24.992l6e-3 21.047h-12.713-12.713v-18.946c0-20.323-0.17273-21.734-2.8911-23.639-0.77748-0.5413-2.4368-0.92082-4.0581-0.92082-2.2499 0-3.0268 0.28585-4.3229 1.5801-2.4887 2.4882-2.8531 5.646-2.8531 24.721v17.205h-12.43-12.43v-30.228zm202.84 0v-30.229h12.43 12.43v4.5251 4.5251l3.5313-3.5684c5.2832-5.3395 11.306-7.6531 18.194-6.9901 9.7389 0.93786 14.802 5.6892 16.97 15.926 0.65047 3.0727 0.83792 8.6013 0.84559 24.992l6e-3 21.047h-12.713-12.713v-18.946c0-20.323-0.17334-21.734-2.8911-23.639-0.77753-0.5413-2.4369-0.92082-4.0582-0.92082-2.2499 0-3.0267 0.28585-4.3228 1.5801-2.4887 2.4882-2.8531 5.646-2.8531 24.721v17.205h-12.43-12.43v-30.228zm-232.38-35.517c-5.7291-1.6148-9.1532-5.9039-9.1578-11.471-2e-3 -2.962 0.25119-3.8445 1.6973-5.902 5.6954-8.1038 21.402-7.1026 25.256 1.6099 1.478 3.3409 1.1251 7.824-0.85088 10.81-2.9232 4.4174-10.74 6.7031-16.944 4.9539z"/><path d="m-116.5 525.76c3.6212-3.7212 18.695 1.338 27.143 8.75-10.858-4.6981-30.075-5.7367-27.143-8.75z" fill="#fdfdfd" fill-rule="evenodd" stroke="#6d6d6d" stroke-linecap="round" stroke-linejoin="round" stroke-width="1px"/></g></svg>
